<?xml version="1.0" encoding="UTF-8"?>
<svg width="560" height="286" viewBox="0 0 560 286" fill="none" xmlns="http://www.w3.org/2000/svg" role="img" aria-label="Eric Lam&apos;s GitHub Stats">
  <title>Eric Lam&apos;s GitHub Stats</title>
  <style>
    .title { font: 700 20px -apple-system, BlinkMacSystemFont, "Segoe UI", sans-serif; fill: #0969da; }
    .subtitle { font: 500 12px -apple-system, BlinkMacSystemFont, "Segoe UI", sans-serif; fill: #57606a; }
    .label { font: 600 13px -apple-system, BlinkMacSystemFont, "Segoe UI", sans-serif; fill: #57606a; }
    .value { font: 700 18px -apple-system, BlinkMacSystemFont, "Segoe UI", sans-serif; fill: #0969da; }
    .stat-label { font: 700 13px -apple-system, BlinkMacSystemFont, "Segoe UI", sans-serif; fill: #57606a; }
    .stat-value { font: 800 13px -apple-system, BlinkMacSystemFont, "Segoe UI", sans-serif; fill: #0969da; }
    .grade { font: 800 27px -apple-system, BlinkMacSystemFont, "Segoe UI", sans-serif; fill: #0969da; }
    .grade-caption { font: 700 10px -apple-system, BlinkMacSystemFont, "Segoe UI", sans-serif; fill: #57606a; letter-spacing: 0.4px; }
    .footer { font: 600 11px -apple-system, BlinkMacSystemFont, "Segoe UI", sans-serif; fill: #57606a; }
    .small { font: 500 12px -apple-system, BlinkMacSystemFont, "Segoe UI", sans-serif; fill: #57606a; }
    .repo { font: 700 14px -apple-system, BlinkMacSystemFont, "Segoe UI", sans-serif; fill: #0969da; }
    .desc { font: 500 12px -apple-system, BlinkMacSystemFont, "Segoe UI", sans-serif; fill: #57606a; }
  </style>
  <rect x="0.5" y="0.5" width="559" height="285" rx="12" fill="#ffffff" stroke="#d0d7de"/>
  
    <text x="28" y="38" class="title" >Eric Lam&apos;s GitHub Stats</text>
    <text x="28" y="60" class="subtitle" >@voidful · updated 2026-06-22</text>

    
    <g opacity="1.00">
      <g transform="translate(32 83)" stroke="#0969da" stroke-width="1.7" fill="none" stroke-linecap="round" stroke-linejoin="round"><path d="M7 1.4 8.9 5.1l4.1.6-3 2.9.7 4.1L7 10.8 3.3 12.7l.7-4.1-3-2.9 4.1-.6L7 1.4Z"/></g>
      <text x="57" y="94" class="stat-label" >Total Stars</text>
      <text x="250" y="94" class="stat-value" text-anchor="end">3.6k</text>
    </g>

    <g opacity="1.00">
      <g transform="translate(32 109)" stroke="#0969da" stroke-width="1.7" fill="none" stroke-linecap="round" stroke-linejoin="round"><circle cx="4" cy="3.2" r="1.6"/><circle cx="10" cy="3.2" r="1.6"/><circle cx="7" cy="11" r="1.6"/><path d="M4 4.8v1.7c0 1.5 1.2 2.7 2.7 2.7H7M10 4.8v1.7c0 1.5-1.2 2.7-2.7 2.7H7"/></g>
      <text x="57" y="120" class="stat-label" >Total Forks</text>
      <text x="250" y="120" class="stat-value" text-anchor="end">558</text>
    </g>

    <g opacity="1.00">
      <g transform="translate(32 135)" stroke="#0969da" stroke-width="1.7" fill="none" stroke-linecap="round" stroke-linejoin="round"><circle cx="7" cy="7" r="5.4"/><path d="M7 3.8v4.2"/><path d="M7 10.4h.1"/></g>
      <text x="57" y="146" class="stat-label" >Open Issues</text>
      <text x="250" y="146" class="stat-value" text-anchor="end">56</text>
    </g>

    <g opacity="1.00">
      <g transform="translate(32 161)" stroke="#0969da" stroke-width="1.7" fill="none" stroke-linecap="round" stroke-linejoin="round"><circle cx="5.2" cy="4.7" r="2.1"/><path d="M1.8 12c.5-2 1.7-3.1 3.4-3.1 1.8 0 3 1.1 3.4 3.1"/><circle cx="10.3" cy="5.6" r="1.6"/><path d="M9.6 9.1c1.4.1 2.3 1 2.7 2.7"/></g>
      <text x="57" y="172" class="stat-label" >Followers</text>
      <text x="250" y="172" class="stat-value" text-anchor="end">473</text>
    </g>

    <g opacity="1.00">
      <g transform="translate(32 187)" stroke="#0969da" stroke-width="1.7" fill="none" stroke-linecap="round" stroke-linejoin="round"><path d="M1.5 8h2.2l1.2-4.5 2.2 7.3 1.5-5h3.9"/></g>
      <text x="57" y="198" class="stat-label" >Contributions 2026</text>
      <text x="250" y="198" class="stat-value" text-anchor="end">1.8k</text>
    </g>

    <g opacity="1.00">
      <g transform="translate(32 213)" stroke="#0969da" stroke-width="1.7" fill="none" stroke-linecap="round" stroke-linejoin="round"><rect x="2.5" y="1.8" width="9" height="10.4" rx="1.3"/><path d="M5 4.2h4"/><path d="M5 6.7h4"/><path d="M5 9.2h2.4"/></g>
      <text x="57" y="224" class="stat-label" >Selected Repos</text>
      <text x="250" y="224" class="stat-value" text-anchor="end">122</text>
    </g>

    <circle cx="436" cy="128" r="40" stroke="#d8dee4" stroke-width="8"/>
    <circle cx="436" cy="128" r="40" stroke="#0969da" stroke-width="8" stroke-linecap="round"
      stroke-dasharray="251.33" stroke-dashoffset="30.16"
      transform="rotate(-90 436 128)"/>
    <text x="436" y="137" class="grade" text-anchor="middle">A++</text>
    <text x="436" y="197" class="grade-caption" text-anchor="middle">PROFILE GRADE</text>

    <text x="328" y="244" class="footer" >Latest push 2026-06-22</text>
    <text x="28" y="264" class="footer" >Source repos: 122 · forked repos: 85 · storage: 56.7 GB</text>
  
</svg>